{
  "accessors": [
    {
      "bufferView": 2,
      "componentType": 5126,
      "count": 3617,
      "max": [
        75.58529663085938,
        24.97249984741211,
        188.40130615234375
      ],
      "min": [
        -76.06580352783203,
        -16.709800720214844,
        -6.140999794006348
      ],
      "type": "VEC3"
    },
    {
      "bufferView": 2,
      "byteOffset": 43404,
      "componentType": 5126,
      "count": 3617,
      "max": [
        0.9998628497123718,
        0.9999849200248718,
        0.9962379932403564
      ],
      "min": [
        -0.9996538758277893,
        -0.9999580383300781,
        -0.9999998211860657
      ],
      "type": "VEC3"
    },
    {
      "bufferView": 3,
      "componentType": 5126,
      "count": 3617,
      "max": [
        0.9999992847442627,
        0.9998003840446472,
        0.9997543096542358,
        1.0
      ],
      "min": [
        -0.9999979138374329,
        -0.9999997019767761,
        -0.9997413158416748,
        -1.0
      ],
      "type": "VEC4"
    },
    {
      "bufferView": 1,
      "componentType": 5126,
      "count": 3617,
      "max": [
        0.9911999702453613,
        0.9937000274658203
      ],
      "min": [
        0.008299999870359898,
        0.011699999682605267
      ],
      "type": "VEC2"
    },
    {
      "bufferView": 0,
      "componentType": 5125,
      "count": 13944,
      "type": "SCALAR"
    },
    {
      "bufferView": 2,
      "byteOffset": 86808,
      "componentType": 5126,
      "count": 4153,
      "max": [
        90.35679626464844,
        117.30449676513672,
        161.51820373535156
      ],
      "min": [
        -101.38500213623047,
        -34.23419952392578,
        -174.66690063476563
      ],
      "type": "VEC3"
    },
    {
      "bufferView": 2,
      "byteOffset": 136644,
      "componentType": 5126,
      "count": 4153,
      "max": [
        0.9525411128997803,
        0.9999731779098511,
        0.9922494292259216
      ],
      "min": [
        -0.9701346158981323,
        -0.9999940991401672,
        -0.8837511539459229
      ],
      "type": "VEC3"
    },
    {
      "bufferView": 1,
      "byteOffset": 28936,
      "componentType": 5126,
      "count": 4153,
      "max": [
        0.9940999746322632,
        0.9886000156402588
      ],
      "min": [
        0.013299999758601189,
        0.0142000000923872
      ],
      "type": "VEC2"
    },
    {
      "bufferView": 0,
      "byteOffset": 55776,
      "componentType": 5125,
      "count": 19083,
      "type": "SCALAR"
    }
  ],
  "asset": {
    "extras": {
      "author": "AVINAS (https://sketchfab.com/AVINAS)",
      "license": "CC-BY-4.0 (http://creativecommons.org/licenses/by/4.0/)",
      "source": "https://sketchfab.com/3d-models/dementor-harry-potter-67d8064183fe4542a8389da4b15deeba",
      "title": "Dementor (Harry Potter)"
    },
    "generator": "Sketchfab-12.29.0",
    "version": "2.0"
  },
  "bufferViews": [
    {
      "buffer": 0,
      "byteLength": 132108,
      "name": "floatBufferViews",
      "target": 34963
    },
    {
      "buffer": 0,
      "byteLength": 62160,
      "byteOffset": 132108,
      "byteStride": 8,
      "name": "floatBufferViews",
      "target": 34962
    },
    {
      "buffer": 0,
      "byteLength": 186480,
      "byteOffset": 194268,
      "byteStride": 12,
      "name": "floatBufferViews",
      "target": 34962
    },
    {
      "buffer": 0,
      "byteLength": 57872,
      "byteOffset": 380748,
      "byteStride": 16,
      "name": "floatBufferViews",
      "target": 34962
    }
  ],
  "buffers": [
    {
      "byteLength": 438620,
      "uri": "scene.bin"
    }
  ],
  "images": [
    {
      "uri": "textures/Tex_0075_0_dds_baseColor.png"
    },
    {
      "uri": "textures/Tex_0075_0_dds_normal.png"
    },
    {
      "uri": "textures/Tex_0077_0_dds_baseColor.png"
    }
  ],
  "materials": [
    {
      "alphaMode": "BLEND",
      "doubleSided": true,
      "name": "Tex_0075_0_dds",
      "normalTexture": {
        "index": 1
      },
      "pbrMetallicRoughness": {
        "baseColorTexture": {
          "index": 0
        },
        "metallicFactor": 0.0
      }
    },
    {
      "alphaMode": "BLEND",
      "doubleSided": true,
      "name": "Tex_0077_0_dds",
      "pbrMetallicRoughness": {
        "baseColorFactor": [
          1.0,
          1.0,
          1.0,
          0.9379530780129238
        ],
        "baseColorTexture": {
          "index": 2
        },
        "metallicFactor": 0.0,
        "roughnessFactor": 0.38550712237361107
      }
    }
  ],
  "meshes": [
    {
      "name": "Object_0",
      "primitives": [
        {
          "attributes": {
            "NORMAL": 1,
            "POSITION": 0,
            "TANGENT": 2,
            "TEXCOORD_0": 3
          },
          "indices": 4,
          "material": 0,
          "mode": 4
        }
      ]
    },
    {
      "name": "Object_1",
      "primitives": [
        {
          "attributes": {
            "NORMAL": 6,
            "POSITION": 5,
            "TEXCOORD_0": 7
          },
          "indices": 8,
          "material": 1,
          "mode": 4
        }
      ]
    }
  ],
  "nodes": [
    {
      "children": [
        1
      ],
      "matrix": [
        1.0,
        0.0,
        0.0,
        0.0,
        0.0,
        3.828568672208042e-16,
        -1.0,
        0.0,
        0.0,
        1.0,
        3.828568672208042e-16,
        0.0,
        0.0,
        -7.105427357601002e-15,
        -1.5777218104420236e-30,
        1.0
      ],
      "name": "Sketchfab_model"
    },
    {
      "children": [
        2,
        3
      ],
      "name": "Dementor Update Model (1).obj.cleaner.materialmerger.gles"
    },
    {
      "mesh": 0,
      "name": "Object_2"
    },
    {
      "mesh": 1,
      "name": "Object_3"
    }
  ],
  "samplers": [
    {
      "magFilter": 9729,
      "minFilter": 9987,
      "wrapS": 10497,
      "wrapT": 10497
    }
  ],
  "scene": 0,
  "scenes": [
    {
      "name": "Sketchfab_Scene",
      "nodes": [
        0
      ]
    }
  ],
  "textures": [
    {
      "sampler": 0,
      "source": 0
    },
    {
      "sampler": 0,
      "source": 1
    },
    {
      "sampler": 0,
      "source": 2
    }
  ]
}
